# xmcd
#
# Track frame offsets:
#	150
#	23896
#	44621
#	64658
#	83913
#	108251
#	125888
#	145265
#	171226
#	190508
#	210926
#
# Disc length: 3094 seconds
# Revision: 0
# Processed by: cddbd v1.5.2PL0 Copyright (c) Steve Scherf et al.
# Submitted via: dBpowerAMP V12.0
#
DISCID=970c140b
DTITLE=Etta James - Mystery Lady: Songs of Billie Holiday
DYEAR=1994
DGENRE=Blues
TTITLE0=Don't Explain
TTITLE1=You've Changed
TTITLE2=The Man I Love
TTITLE3=I Don't Stand a Ghost of a Chance with You
TTITLE4=Lover Man
TTITLE5=Embraceable You
TTITLE6=How Deep Is the Ocean?
TTITLE7=(I'm Afraid) The Masquerade Is Over
TTITLE8=Body and Soul
TTITLE9=The Very Thought of You
TTITLE10=I'll Be Seeing You
EXTD=
EXTT0=
EXTT1=
EXTT2=
EXTT3=
EXTT4=
EXTT5=
EXTT6=
EXTT7=
EXTT8=
EXTT9=
EXTT10=
PLAYORDER=
